<svg width="27" height="32" viewBox="0 0 27 32" fill="none" xmlns="http://www.w3.org/2000/svg">
<path d="M22.4631 30.7161C20.7211 32.4048 18.8191 32.1382 16.9882 31.3383C15.0507 30.5206 13.2731 30.485 11.2289 31.3383C8.66927 32.4403 7.31833 32.1204 5.78963 30.7161C-2.88483 21.775 -1.60499 8.15897 8.24265 7.66126C10.6424 7.78568 12.3133 8.97664 13.7175 9.0833C15.815 8.65668 17.8237 7.43017 20.0634 7.59015C22.7475 7.80346 24.7739 8.86999 26.1071 10.7897C20.5611 14.1138 21.8765 21.4195 26.9603 23.4637C25.9471 26.13 24.6317 28.7786 22.4453 30.7339L22.4631 30.7161ZM13.5398 7.5546C13.2731 3.59066 16.4905 0.31996 20.1878 0C20.7033 4.58609 16.0283 7.99899 13.5398 7.5546Z" fill="white"/>
</svg>
